<svg width="230" height="41" viewBox="0 0 230 41" fill="none" xmlns="http://www.w3.org/2000/svg">
<path d="M25.4099 2.05386L21.4769 1L18.1625 13.3696L15.1702 2.20224L11.2371 3.2561L14.4701 15.3216L6.41746 7.26898L3.53827 10.1482L12.371 18.981L1.37124 16.0336L0.317383 19.9666L12.336 23.187C12.1984 22.5935 12.1256 21.9751 12.1256 21.3397C12.1256 16.8421 15.7716 13.1961 20.2692 13.1961C24.7668 13.1961 28.4128 16.8421 28.4128 21.3397C28.4128 21.971 28.3409 22.5856 28.205 23.1756L39.1277 26.1023L40.1815 22.1693L28.1151 18.9361L39.1156 15.9885L38.0617 12.0555L25.9958 15.2885L34.0484 7.23592L31.1692 4.35673L22.459 13.067L25.4099 2.05386Z" fill="#3843D0"/>
<path d="M28.1944 23.2214C27.8572 24.647 27.1453 25.9277 26.1685 26.9538L34.0815 34.8669L36.9607 31.9877L28.1944 23.2214Z" fill="#3843D0"/>
<path d="M26.0884 27.0366C25.0998 28.0463 23.8505 28.7998 22.4495 29.1881L25.3289 39.9341L29.2619 38.8802L26.0884 27.0366Z" fill="#3843D0"/>
<path d="M22.3026 29.2274C21.6526 29.3945 20.9713 29.4833 20.2692 29.4833C19.517 29.4833 18.7886 29.3813 18.0971 29.1904L15.2151 39.9462L19.1481 41L22.3026 29.2274Z" fill="#3843D0"/>
<path d="M17.9581 29.1507C16.5785 28.7431 15.3514 27.98 14.383 26.9674L6.45056 34.8999L9.32975 37.7791L17.9581 29.1507Z" fill="#3843D0"/>
<path d="M14.3168 26.8973C13.365 25.8783 12.6717 24.6147 12.3417 23.2111L1.3833 26.1474L2.43715 30.0804L14.3168 26.8973Z" fill="#3843D0"/>
<path d="M61.9023 18.8867V21.6289H52.9961V18.8867H61.9023ZM54.0391 11.9375V29H50.5234V11.9375H54.0391ZM64.4102 11.9375V29H60.9062V11.9375H64.4102ZM67.4688 11.9375H73.832C75.1367 11.9375 76.2578 12.1328 77.1953 12.5234C78.1406 12.9141 78.8672 13.4922 79.375 14.2578C79.8828 15.0234 80.1367 15.9648 80.1367 17.082C80.1367 17.9961 79.9805 18.7812 79.668 19.4375C79.3633 20.0859 78.9297 20.6289 78.3672 21.0664C77.8125 21.4961 77.1602 21.8398 76.4102 22.0977L75.2969 22.6836H69.7656L69.7422 19.9414H73.8555C74.4727 19.9414 74.9844 19.832 75.3906 19.6133C75.7969 19.3945 76.1016 19.0898 76.3047 18.6992C76.5156 18.3086 76.6211 17.8555 76.6211 17.3398C76.6211 16.793 76.5195 16.3203 76.3164 15.9219C76.1133 15.5234 75.8047 15.2188 75.3906 15.0078C74.9766 14.7969 74.457 14.6914 73.832 14.6914H70.9844V29H67.4688V11.9375ZM77.0078 29L73.1172 21.3945L76.832 21.3711L80.7695 28.8359V29H77.0078ZM90.4258 11.9375H93.4023L97.7852 24.4648L102.168 11.9375H105.145L98.9805 29H96.5898L90.4258 11.9375ZM88.8203 11.9375H91.7852L92.3242 24.1484V29H88.8203V11.9375ZM103.785 11.9375H106.762V29H103.246V24.1484L103.785 11.9375ZM116.477 26.1406V20.4922C116.477 20.0859 116.41 19.7383 116.277 19.4492C116.145 19.1523 115.938 18.9219 115.656 18.7578C115.383 18.5938 115.027 18.5117 114.59 18.5117C114.215 18.5117 113.891 18.5781 113.617 18.7109C113.344 18.8359 113.133 19.0195 112.984 19.2617C112.836 19.4961 112.762 19.7734 112.762 20.0938H109.387C109.387 19.5547 109.512 19.043 109.762 18.5586C110.012 18.0742 110.375 17.6484 110.852 17.2812C111.328 16.9062 111.895 16.6133 112.551 16.4023C113.215 16.1914 113.957 16.0859 114.777 16.0859C115.762 16.0859 116.637 16.25 117.402 16.5781C118.168 16.9062 118.77 17.3984 119.207 18.0547C119.652 18.7109 119.875 19.5312 119.875 20.5156V25.9414C119.875 26.6367 119.918 27.207 120.004 27.6523C120.09 28.0898 120.215 28.4727 120.379 28.8008V29H116.969C116.805 28.6562 116.68 28.2266 116.594 27.7109C116.516 27.1875 116.477 26.6641 116.477 26.1406ZM116.922 21.2773L116.945 23.1875H115.059C114.613 23.1875 114.227 23.2383 113.898 23.3398C113.57 23.4414 113.301 23.5859 113.09 23.7734C112.879 23.9531 112.723 24.1641 112.621 24.4062C112.527 24.6484 112.48 24.9141 112.48 25.2031C112.48 25.4922 112.547 25.7539 112.68 25.9883C112.812 26.2148 113.004 26.3945 113.254 26.5273C113.504 26.6523 113.797 26.7148 114.133 26.7148C114.641 26.7148 115.082 26.6133 115.457 26.4102C115.832 26.207 116.121 25.957 116.324 25.6602C116.535 25.3633 116.645 25.082 116.652 24.8164L117.543 26.2461C117.418 26.5664 117.246 26.8984 117.027 27.2422C116.816 27.5859 116.547 27.9102 116.219 28.2148C115.891 28.5117 115.496 28.7578 115.035 28.9531C114.574 29.1406 114.027 29.2344 113.395 29.2344C112.59 29.2344 111.859 29.0742 111.203 28.7539C110.555 28.4258 110.039 27.9766 109.656 27.4062C109.281 26.8281 109.094 26.1719 109.094 25.4375C109.094 24.7734 109.219 24.1836 109.469 23.668C109.719 23.1523 110.086 22.7188 110.57 22.3672C111.062 22.0078 111.676 21.7383 112.41 21.5586C113.145 21.3711 113.996 21.2773 114.965 21.2773H116.922ZM125.781 19.0273V29H122.406V16.3203H125.57L125.781 19.0273ZM125.289 22.2148H124.375C124.375 21.2773 124.496 20.4336 124.738 19.6836C124.98 18.9258 125.32 18.2812 125.758 17.75C126.195 17.2109 126.715 16.8008 127.316 16.5195C127.926 16.2305 128.605 16.0859 129.355 16.0859C129.949 16.0859 130.492 16.1719 130.984 16.3438C131.477 16.5156 131.898 16.7891 132.25 17.1641C132.609 17.5391 132.883 18.0352 133.07 18.6523C133.266 19.2695 133.363 20.0234 133.363 20.9141V29H129.965V20.9023C129.965 20.3398 129.887 19.9023 129.73 19.5898C129.574 19.2773 129.344 19.0586 129.039 18.9336C128.742 18.8008 128.375 18.7344 127.938 18.7344C127.484 18.7344 127.09 18.8242 126.754 19.0039C126.426 19.1836 126.152 19.4336 125.934 19.7539C125.723 20.0664 125.562 20.4336 125.453 20.8555C125.344 21.2773 125.289 21.7305 125.289 22.2148ZM142.773 26.1406V20.4922C142.773 20.0859 142.707 19.7383 142.574 19.4492C142.441 19.1523 142.234 18.9219 141.953 18.7578C141.68 18.5938 141.324 18.5117 140.887 18.5117C140.512 18.5117 140.188 18.5781 139.914 18.7109C139.641 18.8359 139.43 19.0195 139.281 19.2617C139.133 19.4961 139.059 19.7734 139.059 20.0938H135.684C135.684 19.5547 135.809 19.043 136.059 18.5586C136.309 18.0742 136.672 17.6484 137.148 17.2812C137.625 16.9062 138.191 16.6133 138.848 16.4023C139.512 16.1914 140.254 16.0859 141.074 16.0859C142.059 16.0859 142.934 16.25 143.699 16.5781C144.465 16.9062 145.066 17.3984 145.504 18.0547C145.949 18.7109 146.172 19.5312 146.172 20.5156V25.9414C146.172 26.6367 146.215 27.207 146.301 27.6523C146.387 28.0898 146.512 28.4727 146.676 28.8008V29H143.266C143.102 28.6562 142.977 28.2266 142.891 27.7109C142.812 27.1875 142.773 26.6641 142.773 26.1406ZM143.219 21.2773L143.242 23.1875H141.355C140.91 23.1875 140.523 23.2383 140.195 23.3398C139.867 23.4414 139.598 23.5859 139.387 23.7734C139.176 23.9531 139.02 24.1641 138.918 24.4062C138.824 24.6484 138.777 24.9141 138.777 25.2031C138.777 25.4922 138.844 25.7539 138.977 25.9883C139.109 26.2148 139.301 26.3945 139.551 26.5273C139.801 26.6523 140.094 26.7148 140.43 26.7148C140.938 26.7148 141.379 26.6133 141.754 26.4102C142.129 26.207 142.418 25.957 142.621 25.6602C142.832 25.3633 142.941 25.082 142.949 24.8164L143.84 26.2461C143.715 26.5664 143.543 26.8984 143.324 27.2422C143.113 27.5859 142.844 27.9102 142.516 28.2148C142.188 28.5117 141.793 28.7578 141.332 28.9531C140.871 29.1406 140.324 29.2344 139.691 29.2344C138.887 29.2344 138.156 29.0742 137.5 28.7539C136.852 28.4258 136.336 27.9766 135.953 27.4062C135.578 26.8281 135.391 26.1719 135.391 25.4375C135.391 24.7734 135.516 24.1836 135.766 23.668C136.016 23.1523 136.383 22.7188 136.867 22.3672C137.359 22.0078 137.973 21.7383 138.707 21.5586C139.441 21.3711 140.293 21.2773 141.262 21.2773H143.219ZM156.801 16.3203H159.859V28.5781C159.859 29.7344 159.602 30.7148 159.086 31.5195C158.578 32.332 157.867 32.9453 156.953 33.3594C156.039 33.7812 154.977 33.9922 153.766 33.9922C153.234 33.9922 152.672 33.9219 152.078 33.7812C151.492 33.6406 150.93 33.4219 150.391 33.125C149.859 32.8281 149.414 32.4531 149.055 32L150.543 30.0078C150.934 30.4609 151.387 30.8125 151.902 31.0625C152.418 31.3203 152.988 31.4492 153.613 31.4492C154.223 31.4492 154.738 31.3359 155.16 31.1094C155.582 30.8906 155.906 30.5664 156.133 30.1367C156.359 29.7148 156.473 29.2031 156.473 28.6016V19.25L156.801 16.3203ZM148.27 22.8125V22.5664C148.27 21.5977 148.387 20.7188 148.621 19.9297C148.863 19.1328 149.203 18.4492 149.641 17.8789C150.086 17.3086 150.625 16.8672 151.258 16.5547C151.891 16.2422 152.605 16.0859 153.402 16.0859C154.246 16.0859 154.953 16.2422 155.523 16.5547C156.094 16.8672 156.562 17.3125 156.93 17.8906C157.297 18.4609 157.582 19.1367 157.785 19.918C157.996 20.6914 158.16 21.5391 158.277 22.4609V23C158.16 23.8828 157.984 24.7031 157.75 25.4609C157.516 26.2188 157.207 26.8828 156.824 27.4531C156.441 28.0156 155.965 28.4531 155.395 28.7656C154.832 29.0781 154.16 29.2344 153.379 29.2344C152.598 29.2344 151.891 29.0742 151.258 28.7539C150.633 28.4336 150.098 27.9844 149.652 27.4062C149.207 26.8281 148.863 26.1484 148.621 25.3672C148.387 24.5859 148.27 23.7344 148.27 22.8125ZM151.645 22.5664V22.8125C151.645 23.3359 151.695 23.8242 151.797 24.2773C151.898 24.7305 152.055 25.1328 152.266 25.4844C152.484 25.8281 152.754 26.0977 153.074 26.293C153.402 26.4805 153.789 26.5742 154.234 26.5742C154.852 26.5742 155.355 26.4453 155.746 26.1875C156.137 25.9219 156.43 25.5586 156.625 25.0977C156.82 24.6367 156.934 24.1055 156.965 23.5039V21.9688C156.949 21.4766 156.883 21.0352 156.766 20.6445C156.648 20.2461 156.484 19.9062 156.273 19.625C156.062 19.3438 155.789 19.125 155.453 18.9688C155.117 18.8125 154.719 18.7344 154.258 18.7344C153.812 18.7344 153.426 18.8359 153.098 19.0391C152.777 19.2344 152.508 19.5039 152.289 19.8477C152.078 20.1914 151.918 20.5977 151.809 21.0664C151.699 21.5273 151.645 22.0273 151.645 22.5664ZM168.32 29.2344C167.336 29.2344 166.453 29.0781 165.672 28.7656C164.891 28.4453 164.227 28.0039 163.68 27.4414C163.141 26.8789 162.727 26.2266 162.438 25.4844C162.148 24.7344 162.004 23.9375 162.004 23.0938V22.625C162.004 21.6641 162.141 20.7852 162.414 19.9883C162.688 19.1914 163.078 18.5 163.586 17.9141C164.102 17.3281 164.727 16.8789 165.461 16.5664C166.195 16.2461 167.023 16.0859 167.945 16.0859C168.844 16.0859 169.641 16.2344 170.336 16.5312C171.031 16.8281 171.613 17.25 172.082 17.7969C172.559 18.3438 172.918 19 173.16 19.7656C173.402 20.5234 173.523 21.3672 173.523 22.2969V23.7031H163.445V21.4531H170.207V21.1953C170.207 20.7266 170.121 20.3086 169.949 19.9414C169.785 19.5664 169.535 19.2695 169.199 19.0508C168.863 18.832 168.434 18.7227 167.91 18.7227C167.465 18.7227 167.082 18.8203 166.762 19.0156C166.441 19.2109 166.18 19.4844 165.977 19.8359C165.781 20.1875 165.633 20.6016 165.531 21.0781C165.438 21.5469 165.391 22.0625 165.391 22.625V23.0938C165.391 23.6016 165.461 24.0703 165.602 24.5C165.75 24.9297 165.957 25.3008 166.223 25.6133C166.496 25.9258 166.824 26.168 167.207 26.3398C167.598 26.5117 168.039 26.5977 168.531 26.5977C169.141 26.5977 169.707 26.4805 170.23 26.2461C170.762 26.0039 171.219 25.6406 171.602 25.1562L173.242 26.9375C172.977 27.3203 172.613 27.6875 172.152 28.0391C171.699 28.3906 171.152 28.6797 170.512 28.9062C169.871 29.125 169.141 29.2344 168.32 29.2344ZM178.82 18.9453V29H175.434V16.3203H178.609L178.82 18.9453ZM178.352 22.2148H177.414C177.414 21.332 177.52 20.5195 177.73 19.7773C177.949 19.0273 178.266 18.3789 178.68 17.832C179.102 17.2773 179.621 16.8477 180.238 16.543C180.855 16.2383 181.57 16.0859 182.383 16.0859C182.945 16.0859 183.461 16.1719 183.93 16.3438C184.398 16.5078 184.801 16.7695 185.137 17.1289C185.48 17.4805 185.746 17.9414 185.934 18.5117C186.121 19.0742 186.215 19.75 186.215 20.5391V29H182.84V20.9141C182.84 20.3359 182.762 19.8906 182.605 19.5781C182.449 19.2656 182.227 19.0469 181.938 18.9219C181.656 18.7969 181.316 18.7344 180.918 18.7344C180.48 18.7344 180.098 18.8242 179.77 19.0039C179.449 19.1836 179.184 19.4336 178.973 19.7539C178.762 20.0664 178.605 20.4336 178.504 20.8555C178.402 21.2773 178.352 21.7305 178.352 22.2148ZM185.898 21.8281L184.691 21.9805C184.691 21.1523 184.793 20.3828 184.996 19.6719C185.207 18.9609 185.516 18.3359 185.922 17.7969C186.336 17.2578 186.848 16.8398 187.457 16.543C188.066 16.2383 188.77 16.0859 189.566 16.0859C190.176 16.0859 190.73 16.1758 191.23 16.3555C191.73 16.5273 192.156 16.8047 192.508 17.1875C192.867 17.5625 193.141 18.0547 193.328 18.6641C193.523 19.2734 193.621 20.0195 193.621 20.9023V29H190.234V20.9023C190.234 20.3164 190.156 19.8711 190 19.5664C189.852 19.2539 189.633 19.0391 189.344 18.9219C189.062 18.7969 188.727 18.7344 188.336 18.7344C187.93 18.7344 187.574 18.8164 187.27 18.9805C186.965 19.1367 186.711 19.3555 186.508 19.6367C186.305 19.918 186.152 20.2461 186.051 20.6211C185.949 20.9883 185.898 21.3906 185.898 21.8281ZM202.07 29.2344C201.086 29.2344 200.203 29.0781 199.422 28.7656C198.641 28.4453 197.977 28.0039 197.43 27.4414C196.891 26.8789 196.477 26.2266 196.188 25.4844C195.898 24.7344 195.754 23.9375 195.754 23.0938V22.625C195.754 21.6641 195.891 20.7852 196.164 19.9883C196.438 19.1914 196.828 18.5 197.336 17.9141C197.852 17.3281 198.477 16.8789 199.211 16.5664C199.945 16.2461 200.773 16.0859 201.695 16.0859C202.594 16.0859 203.391 16.2344 204.086 16.5312C204.781 16.8281 205.363 17.25 205.832 17.7969C206.309 18.3438 206.668 19 206.91 19.7656C207.152 20.5234 207.273 21.3672 207.273 22.2969V23.7031H197.195V21.4531H203.957V21.1953C203.957 20.7266 203.871 20.3086 203.699 19.9414C203.535 19.5664 203.285 19.2695 202.949 19.0508C202.613 18.832 202.184 18.7227 201.66 18.7227C201.215 18.7227 200.832 18.8203 200.512 19.0156C200.191 19.2109 199.93 19.4844 199.727 19.8359C199.531 20.1875 199.383 20.6016 199.281 21.0781C199.188 21.5469 199.141 22.0625 199.141 22.625V23.0938C199.141 23.6016 199.211 24.0703 199.352 24.5C199.5 24.9297 199.707 25.3008 199.973 25.6133C200.246 25.9258 200.574 26.168 200.957 26.3398C201.348 26.5117 201.789 26.5977 202.281 26.5977C202.891 26.5977 203.457 26.4805 203.98 26.2461C204.512 26.0039 204.969 25.6406 205.352 25.1562L206.992 26.9375C206.727 27.3203 206.363 27.6875 205.902 28.0391C205.449 28.3906 204.902 28.6797 204.262 28.9062C203.621 29.125 202.891 29.2344 202.07 29.2344ZM212.5 19.0273V29H209.125V16.3203H212.289L212.5 19.0273ZM212.008 22.2148H211.094C211.094 21.2773 211.215 20.4336 211.457 19.6836C211.699 18.9258 212.039 18.2812 212.477 17.75C212.914 17.2109 213.434 16.8008 214.035 16.5195C214.645 16.2305 215.324 16.0859 216.074 16.0859C216.668 16.0859 217.211 16.1719 217.703 16.3438C218.195 16.5156 218.617 16.7891 218.969 17.1641C219.328 17.5391 219.602 18.0352 219.789 18.6523C219.984 19.2695 220.082 20.0234 220.082 20.9141V29H216.684V20.9023C216.684 20.3398 216.605 19.9023 216.449 19.5898C216.293 19.2773 216.062 19.0586 215.758 18.9336C215.461 18.8008 215.094 18.7344 214.656 18.7344C214.203 18.7344 213.809 18.8242 213.473 19.0039C213.145 19.1836 212.871 19.4336 212.652 19.7539C212.441 20.0664 212.281 20.4336 212.172 20.8555C212.062 21.2773 212.008 21.7305 212.008 22.2148ZM228.859 16.3203V18.7109H221.477V16.3203H228.859ZM223.305 13.1914H226.68V25.1797C226.68 25.5469 226.727 25.8281 226.82 26.0234C226.922 26.2188 227.07 26.3555 227.266 26.4336C227.461 26.5039 227.707 26.5391 228.004 26.5391C228.215 26.5391 228.402 26.5312 228.566 26.5156C228.738 26.4922 228.883 26.4688 229 26.4453L229.012 28.9297C228.723 29.0234 228.41 29.0977 228.074 29.1523C227.738 29.207 227.367 29.2344 226.961 29.2344C226.219 29.2344 225.57 29.1133 225.016 28.8711C224.469 28.6211 224.047 28.2227 223.75 27.6758C223.453 27.1289 223.305 26.4102 223.305 25.5195V13.1914Z" fill="#111827"/>
</svg>
